<svg xmlns="http://www.w3.org/2000/svg" width="512" height="512" viewBox="0 0 512 512">
  <defs>
    <linearGradient id="grad" x1="0%" y1="0%" x2="100%" y2="100%">
      <stop offset="0%" style="stop-color:#0071E3;stop-opacity:1" />
      <stop offset="100%" style="stop-color:#0055B3;stop-opacity:1" />
    </linearGradient>
  </defs>
  <rect width="512" height="512" rx="108" fill="url(#grad)"/>
  <path d="M140 120 L372 120 Q400 120 400 148 L400 364 Q400 392 372 392 L140 392 Q112 392 112 364 L112 148 Q112 120 140 120 Z" fill="white" opacity="0.95"/>
  <rect x="148" y="160" width="216" height="16" rx="8" fill="#0071E3" opacity="0.8"/>
  <rect x="148" y="200" width="180" height="12" rx="6" fill="#86868B" opacity="0.6"/>
  <rect x="148" y="228" width="200" height="12" rx="6" fill="#86868B" opacity="0.6"/>
  <rect x="148" y="256" width="160" height="12" rx="6" fill="#86868B" opacity="0.6"/>
  <rect x="148" y="284" width="190" height="12" rx="6" fill="#86868B" opacity="0.6"/>
  <rect x="148" y="312" width="140" height="12" rx="6" fill="#86868B" opacity="0.6"/>
  <circle cx="356" cy="356" r="44" fill="#34C759"/>
  <path d="M336 356 L350 370 L378 342" stroke="white" stroke-width="8" stroke-linecap="round" stroke-linejoin="round" fill="none"/>
</svg>